# xmcd
#
# Track frame offsets: 
#        150
#        14579
#        28866
#        42878
#
# Disc length: 818 seconds
#
# Revision: 0
# Processed by: cddbd v1.5.2PL0 Copyright (c) Steve Scherf et al.
# Submitted via: ExactAudioCopy v1.0b1
#
DISCID=2c033004
DTITLE=Dominic Waxing Lyrical - part-timers
DYEAR=1998
DGENRE=
TTITLE0=Wednesday
TTITLE1=Flowers
TTITLE2=Bands 5
TTITLE3=Stars on 78
EXTD=
EXTT0=
EXTT1=
EXTT2=
EXTT3=
PLAYORDER=
